<?xml version="1.0" encoding="UTF-8"?>
<svg xmlns="http://www.w3.org/2000/svg" xmlns:xlink="http://www.w3.org/1999/xlink" viewBox="0 0 2000 1000">
  <defs>
    <style>
      .cls-1 {
        fill: #e2e2e2;
      }

      .cls-2 {
        fill: #0700c4;
      }

      .cls-2, .cls-3, .cls-4, .cls-5, .cls-6 {
        mix-blend-mode: multiply;
      }

      .cls-7 {
        fill: url(#linear-gradient);
        mix-blend-mode: screen;
      }

      .cls-3 {
        fill: url(#radial-gradient-2);
      }

      .cls-8 {
        isolation: isolate;
      }

      .cls-9 {
        fill: #f6f7f7;
      }

      .cls-10 {
        fill: #f0efef;
      }

      .cls-4 {
        fill: url(#radial-gradient-4);
      }

      .cls-5 {
        fill: url(#radial-gradient);
      }

      .cls-11 {
        fill: #d3d3d3;
      }

      .cls-6 {
        fill: url(#radial-gradient-3);
      }
    </style>
    <radialGradient id="radial-gradient" cx="636.06" cy="1229.5376" fx="636.06" fy="1229.5376" r="676.103" gradientUnits="userSpaceOnUse">
      <stop offset="0" stop-color="#b3b3b3"/>
      <stop offset=".0889" stop-color="silver"/>
      <stop offset=".3131" stop-color="#dbdbdb"/>
      <stop offset=".5395" stop-color="#efefef"/>
      <stop offset=".7676" stop-color="#fbfbfb"/>
      <stop offset="1" stop-color="#fff"/>
    </radialGradient>
    <radialGradient id="radial-gradient-2" cx="1271.335" cy="1149.8825" fx="1271.335" fy="1149.8825" r="778.4267" xlink:href="#radial-gradient"/>
    <radialGradient id="radial-gradient-3" cx="659.3" cy="1250.9714" fx="659.3" fy="1250.9714" r="705.3409" xlink:href="#radial-gradient"/>
    <radialGradient id="radial-gradient-4" cx="286.97" cy="388.8968" fx="286.97" fy="388.8968" r="301.5347" xlink:href="#radial-gradient"/>
    <linearGradient id="linear-gradient" x1="1893.439" y1="1393.439" x2="437.062" y2="-62.938" gradientUnits="userSpaceOnUse">
      <stop offset="0" stop-color="#000"/>
      <stop offset=".2551" stop-color="#2e2e2e"/>
      <stop offset=".8319" stop-color="#a3a3a3"/>
      <stop offset="1" stop-color="#c7c7c7"/>
    </linearGradient>
  </defs>
  <g class="cls-8">
    <g id="Layer_1" data-name="Layer 1">
      <rect class="cls-2" width="2000" height="1000"/>
      <polygon class="cls-1" points="58.25 0 58.25 91.08 58.21 91.06 58.18 91.04 0 57.45 0 20.4 35.34 0 58.25 0"/>
      <polygon class="cls-11" points="35.27 0 0 20.36 0 0 35.27 0"/>
      <polygon class="cls-9" points="58.18 91.08 0 124.67 0 57.49 58.18 91.08"/>
      <polygon class="cls-1" points="148.51 0 148.51 38.93 81.09 0 148.51 0"/>
      <polygon class="cls-9" points="238.91 0 238.91 91.08 238.88 91.06 238.84 91.04 238.77 91 148.58 38.93 216 0 238.91 0"/>
      <polygon class="cls-1" points="215.93 0 148.51 38.93 148.51 0 215.93 0"/>
      <polygon class="cls-10" points="148.51 38.93 58.25 91.04 58.21 91.06 58.18 91.08 58.18 0 81.09 0 148.51 38.93"/>
      <polygon class="cls-1" points="58.1753 91.0823 148.5085 143.2359 148.5085 38.9282 58.1753 91.0823"/>
      <polygon class="cls-9" points="238.8411 91.0823 148.5085 38.9282 148.5085 143.2359 238.8411 91.0823"/>
      <polygon class="cls-11" points="329.17 0 329.17 38.93 329.11 38.9 261.75 0 329.17 0"/>
      <polygon class="cls-10" points="419.58 0 419.58 91.08 419.54 91.06 419.51 91.04 413.65 87.66 329.24 38.93 396.67 0 419.58 0"/>
      <polygon class="cls-1" points="396.6 0 329.17 38.93 329.17 0 396.6 0"/>
      <polygon class="cls-1" points="329.17 38.93 238.91 91.04 238.88 91.06 238.84 91.08 238.84 0 261.75 0 329.11 38.9 329.17 38.93"/>
      <polygon class="cls-11" points="238.8411 91.0823 329.1743 143.2359 329.1743 38.9282 238.8411 91.0823"/>
      <polygon class="cls-10" points="419.5069 91.0823 329.1743 38.9282 329.1743 143.2359 419.5069 91.0823"/>
      <polygon class="cls-10" points="509.84 0 509.84 38.93 506.75 37.14 506.74 37.14 442.42 0 509.84 0"/>
      <polygon class="cls-11" points="600.24 0 600.24 91.08 600.21 91.06 600.17 91.04 509.91 38.93 557.49 11.45 577.33 0 600.24 0"/>
      <polygon class="cls-1" points="577.26 0 557.46 11.43 509.84 38.93 509.84 0 577.26 0"/>
      <polygon class="cls-10" points="509.84 38.93 419.58 91.04 419.54 91.06 419.51 91.08 419.51 0 442.42 0 506.74 37.14 506.75 37.14 509.84 38.93"/>
      <polygon class="cls-1" points="419.5069 91.0823 509.8401 143.2359 509.8401 38.9282 419.5069 91.0823"/>
      <polygon class="cls-1" points="600.1728 91.0823 509.8401 38.9282 509.8401 143.2359 600.1728 91.0823"/>
      <polygon class="cls-10" points="690.51 0 690.51 38.93 623.08 0 690.51 0"/>
      <polygon class="cls-1" points="780.91 0 780.91 91.08 780.88 91.06 780.84 91.04 690.58 38.93 758 0 780.91 0"/>
      <polygon class="cls-9" points="757.93 0 690.51 38.93 690.51 0 757.93 0"/>
      <polygon class="cls-10" points="690.51 38.93 689.11 39.74 636.48 70.12 600.24 91.04 600.21 91.06 600.17 91.08 600.17 0 623.08 0 690.51 38.93"/>
      <polygon class="cls-1" points="600.1728 91.0823 690.5059 143.2359 690.5059 38.9282 600.1728 91.0823"/>
      <polygon class="cls-1" points="780.8391 91.0823 690.5059 38.9282 690.5059 143.2359 780.8391 91.0823"/>
      <polygon class="cls-1" points="871.17 0 871.17 38.93 803.75 0 871.17 0"/>
      <polygon class="cls-11" points="961.57 0 961.57 91.08 961.54 91.06 961.5 91.04 871.24 38.93 938.66 0 961.57 0"/>
      <polygon class="cls-1" points="938.59 0 871.17 38.93 871.17 0 938.59 0"/>
      <polygon class="cls-1" points="871.17 38.93 780.91 91.04 780.88 91.06 780.84 91.08 780.84 0 803.75 0 871.17 38.93"/>
      <polygon class="cls-1" points="780.8386 91.0823 871.1717 143.2359 871.1717 38.9282 780.8386 91.0823"/>
      <polygon class="cls-10" points="961.5049 91.0823 871.1717 38.9282 871.1717 143.2359 961.5049 91.0823"/>
      <polygon class="cls-10" points="1051.8401 0 1051.8401 38.93 984.41 0 1051.8401 0"/>
      <polygon class="cls-9" points="1142.24 0 1142.24 91.08 1142.21 91.06 1142.1699 91.04 1051.9099 38.93 1119.3301 0 1142.24 0"/>
      <polygon class="cls-1" points="1119.26 0 1051.8401 38.93 1051.8401 0 1119.26 0"/>
      <polygon class="cls-1" points="1051.8401 38.93 961.57 91.04 961.54 91.06 961.5 91.08 961.5 0 984.41 0 1051.8401 38.93"/>
      <polygon class="cls-10" points="961.5049 91.0823 1051.8375 143.2359 1051.8375 38.9282 961.5049 91.0823"/>
      <polygon class="cls-10" points="1142.1707 91.0823 1051.8375 38.9282 1051.8375 143.2359 1142.1707 91.0823"/>
      <polygon class="cls-10" points="1232.5 0 1232.5 38.93 1165.0801 0 1232.5 0"/>
      <polygon class="cls-11" points="1322.9099 0 1322.9099 91.08 1322.87 91.06 1322.8401 91.04 1232.5701 38.93 1300 0 1322.9099 0"/>
      <polygon class="cls-10" points="1299.9299 0 1232.5 38.93 1232.5 0 1299.9299 0"/>
      <polygon class="cls-1" points="1232.5 38.93 1142.24 91.04 1142.21 91.06 1142.1699 91.08 1142.1699 0 1165.0801 0 1232.5 38.93"/>
      <polygon class="cls-1" points="1142.1707 91.0823 1232.5034 143.2359 1232.5034 38.9282 1142.1707 91.0823"/>
      <polygon class="cls-11" points="1322.8365 91.0823 1232.5034 38.9282 1232.5034 143.2359 1322.8365 91.0823"/>
      <polygon class="cls-11" points="1413.1699 0 1413.1699 38.93 1345.75 0 1413.1699 0"/>
      <polygon class="cls-1" points="1503.5701 0 1503.5701 91.08 1503.54 91.06 1503.5 91.04 1413.24 38.93 1480.6599 0 1503.5701 0"/>
      <polygon class="cls-1" points="1480.5901 0 1413.1699 38.93 1413.1699 0 1480.5901 0"/>
      <polygon class="cls-11" points="1413.1699 38.93 1322.9099 91.04 1322.87 91.06 1322.8401 91.08 1322.8401 0 1345.75 0 1413.1699 38.93"/>
      <polygon class="cls-10" points="1322.8365 91.0823 1413.1692 143.2359 1413.1692 38.9282 1322.8365 91.0823"/>
      <polygon class="cls-11" points="1503.5023 91.0823 1413.1692 38.9282 1413.1692 143.2359 1503.5023 91.0823"/>
      <polygon class="cls-1" points="1593.8301 0 1593.8301 38.93 1526.4099 0 1593.8301 0"/>
      <polygon class="cls-10" points="1684.24 0 1684.24 91.08 1684.21 91.06 1684.1699 91.04 1593.9099 38.93 1661.3301 0 1684.24 0"/>
      <polygon class="cls-1" points="1661.26 0 1593.8301 38.93 1593.8301 0 1661.26 0"/>
      <polygon class="cls-10" points="1593.8301 38.93 1503.5701 91.04 1503.54 91.06 1503.5 91.08 1503.5 0 1526.4099 0 1593.8301 38.93"/>
      <polygon class="cls-10" points="1503.5023 91.0823 1593.835 143.2359 1593.835 38.9282 1503.5023 91.0823"/>
      <polygon class="cls-1" points="1684.1681 91.0823 1593.835 38.9282 1593.835 143.2359 1684.1681 91.0823"/>
      <polygon class="cls-9" points="1774.5 0 1774.5 38.93 1707.0801 0 1774.5 0"/>
      <polygon class="cls-11" points="1864.9 0 1864.9 91.08 1864.87 91.06 1864.8301 91.04 1774.5701 38.93 1841.99 0 1864.9 0"/>
      <polygon class="cls-1" points="1841.9199 0 1774.5 38.93 1774.5 0 1841.9199 0"/>
      <polygon class="cls-11" points="1774.5 38.93 1684.24 91.04 1684.21 91.06 1684.1699 91.08 1684.1699 0 1707.0801 0 1774.5 38.93"/>
      <polygon class="cls-11" points="1684.1681 91.0823 1774.5008 143.2359 1774.5008 38.9282 1684.1681 91.0823"/>
      <polygon class="cls-11" points="1864.8339 91.0823 1774.5008 38.9282 1774.5008 143.2359 1864.8339 91.0823"/>
      <polygon class="cls-1" points="1955.1699 0 1955.1699 38.93 1887.74 0 1955.1699 0"/>
      <polygon class="cls-10" points="2000 13.08 2000 64.77 1955.24 38.93 2000 13.08"/>
      <polygon class="cls-10" points="2000 0 2000 13.04 1955.1699 38.93 1955.1699 0 2000 0"/>
      <polygon class="cls-1" points="1955.1699 38.93 1864.9 91.04 1864.87 91.06 1864.8301 91.08 1864.8301 0 1887.74 0 1955.1699 38.93"/>
      <polygon class="cls-1" points="1864.8339 91.0823 1955.1666 143.2359 1955.1666 38.9282 1864.8339 91.0823"/>
      <polygon class="cls-10" points="2000 64.81 2000 117.35 1955.1699 143.24 1955.1699 38.93 2000 64.81"/>
      <polygon class="cls-9" points="58.18 91.08 58.18 195.39 57.98 195.27 0 161.8 0 124.67 58.18 91.08"/>
      <polygon class="cls-11" points="58.2459 195.39 148.5786 247.5436 148.5786 143.2359 58.2459 195.39"/>
      <polygon class="cls-11" points="148.5085 143.2359 58.1753 91.0823 58.1753 195.39 148.5085 143.2359"/>
      <polygon class="cls-10" points="58.18 195.39 0 228.98 0 161.8 57.98 195.27 58.18 195.39"/>
      <polygon class="cls-10" points="58.18 195.39 58.18 299.7 28.78 282.72 0 266.11 0 228.98 58.18 195.39"/>
      <polygon class="cls-10" points="148.5085 247.5436 58.1753 195.39 58.1753 299.6972 148.5085 247.5436"/>
      <polygon class="cls-10" points="148.5085 143.2359 238.8411 195.39 238.8411 91.0823 148.5085 143.2359"/>
      <polygon class="cls-9" points="238.9117 195.39 329.2444 247.5436 329.2444 143.2359 238.9117 195.39"/>
      <polygon class="cls-1" points="329.1743 143.2359 238.8411 91.0823 238.8411 195.39 329.1743 143.2359"/>
      <polygon class="cls-10" points="238.8411 195.39 148.5085 143.2359 148.5085 247.5436 238.8411 195.39"/>
      <polygon class="cls-9" points="148.5085 247.5436 238.8411 299.6972 238.8411 195.39 148.5085 247.5436"/>
      <polygon class="cls-10" points="329.1743 247.5436 238.8411 195.39 238.8411 299.6972 329.1743 247.5436"/>
      <polygon class="cls-9" points="329.1743 143.2359 419.5069 195.39 419.5069 91.0823 329.1743 143.2359"/>
      <polygon class="cls-1" points="419.5775 195.39 509.9102 247.5436 509.9102 143.2359 419.5775 195.39"/>
      <polygon class="cls-1" points="509.8401 143.2359 419.5069 91.0823 419.5069 195.39 509.8401 143.2359"/>
      <polygon class="cls-9" points="419.5069 195.39 329.1743 143.2359 329.1743 247.5436 419.5069 195.39"/>
      <polygon class="cls-1" points="329.1743 247.5436 419.5069 299.6972 419.5069 195.39 329.1743 247.5436"/>
      <polygon class="cls-10" points="509.8401 247.5436 419.5069 195.39 419.5069 299.6972 509.8401 247.5436"/>
      <polygon class="cls-9" points="509.8401 143.2359 600.1728 195.39 600.1728 91.0823 509.8401 143.2359"/>
      <polygon class="cls-1" points="600.2433 195.39 690.576 247.5436 690.576 143.2359 600.2433 195.39"/>
      <polygon class="cls-10" points="690.5059 143.2359 600.1728 91.0823 600.1728 195.39 690.5059 143.2359"/>
      <polygon class="cls-1" points="600.1728 195.39 509.8401 143.2359 509.8401 247.5436 600.1728 195.39"/>
      <polygon class="cls-10" points="509.8401 247.5436 600.1728 299.6972 600.1728 195.39 509.8401 247.5436"/>
      <polygon class="cls-10" points="690.5059 247.5436 600.1728 195.39 600.1728 299.6972 690.5059 247.5436"/>
      <polygon class="cls-10" points="690.5059 143.2359 780.8386 195.39 780.8386 91.0823 690.5059 143.2359"/>
      <polygon class="cls-10" points="780.9091 195.39 871.2418 247.5436 871.2418 143.2359 780.9091 195.39"/>
      <polygon class="cls-1" points="871.1717 143.2359 780.8391 91.0823 780.8391 195.39 871.1717 143.2359"/>
      <polygon class="cls-10" points="780.8391 195.39 690.5059 143.2359 690.5059 247.5436 780.8391 195.39"/>
      <polygon class="cls-11" points="690.5059 247.5436 780.8386 299.6972 780.8386 195.39 690.5059 247.5436"/>
      <polygon class="cls-10" points="871.1717 247.5436 780.8391 195.39 780.8391 299.6972 871.1717 247.5436"/>
      <polygon class="cls-9" points="871.1717 143.2359 961.5049 195.39 961.5049 91.0823 871.1717 143.2359"/>
      <polygon class="cls-10" points="961.575 195.39 1051.9076 247.5436 1051.9076 143.2359 961.575 195.39"/>
      <polygon class="cls-9" points="1051.8375 143.2359 961.5049 91.0823 961.5049 195.39 1051.8375 143.2359"/>
      <polygon class="cls-1" points="961.5049 195.39 871.1717 143.2359 871.1717 247.5436 961.5049 195.39"/>
      <polygon class="cls-11" points="871.1717 247.5436 961.5049 299.6972 961.5049 195.39 871.1717 247.5436"/>
      <polygon class="cls-11" points="1051.8375 247.5436 961.5049 195.39 961.5049 299.6972 1051.8375 247.5436"/>
      <polygon class="cls-1" points="1051.8375 143.2359 1142.1707 195.39 1142.1707 91.0823 1051.8375 143.2359"/>
      <polygon class="cls-1" points="1142.2408 195.39 1232.5739 247.5436 1232.5739 143.2359 1142.2408 195.39"/>
      <polygon class="cls-10" points="1232.5034 143.2359 1142.1707 91.0823 1142.1707 195.39 1232.5034 143.2359"/>
      <polygon class="cls-1" points="1142.1707 195.39 1051.8375 143.2359 1051.8375 247.5436 1142.1707 195.39"/>
      <polygon class="cls-10" points="1051.8375 247.5436 1142.1707 299.6972 1142.1707 195.39 1051.8375 247.5436"/>
      <polygon class="cls-1" points="1232.5034 247.5436 1142.1707 195.39 1142.1707 299.6972 1232.5034 247.5436"/>
      <polygon class="cls-10" points="1232.5034 143.2359 1322.8365 195.39 1322.8365 91.0823 1232.5034 143.2359"/>
      <polygon class="cls-11" points="1322.9066 195.39 1413.2397 247.5436 1413.2397 143.2359 1322.9066 195.39"/>
      <polygon class="cls-10" points="1413.1692 143.2359 1322.8365 91.0823 1322.8365 195.39 1413.1692 143.2359"/>
      <polygon class="cls-10" points="1322.8365 195.39 1232.5034 143.2359 1232.5034 247.5436 1322.8365 195.39"/>
      <polygon class="cls-9" points="1232.5034 247.5436 1322.8365 299.6972 1322.8365 195.39 1232.5034 247.5436"/>
      <polygon class="cls-9" points="1413.1692 247.5436 1322.8365 195.39 1322.8365 299.6972 1413.1692 247.5436"/>
      <polygon class="cls-1" points="1413.1692 143.2359 1503.5023 195.39 1503.5023 91.0823 1413.1692 143.2359"/>
      <polygon class="cls-11" points="1503.5724 195.39 1593.9056 247.5436 1593.9056 143.2359 1503.5724 195.39"/>
      <polygon class="cls-11" points="1593.835 143.2359 1503.5023 91.0823 1503.5023 195.39 1593.835 143.2359"/>
      <polygon class="cls-10" points="1503.5023 195.39 1413.1692 143.2359 1413.1692 247.5436 1503.5023 195.39"/>
      <polygon class="cls-1" points="1413.1692 247.5436 1503.5023 299.6972 1503.5023 195.39 1413.1692 247.5436"/>
      <polygon class="cls-9" points="1593.835 247.5436 1503.5023 195.39 1503.5023 299.6972 1593.835 247.5436"/>
      <polygon class="cls-10" points="1593.835 143.2359 1684.1681 195.39 1684.1681 91.0823 1593.835 143.2359"/>
      <polygon class="cls-9" points="1684.2382 195.39 1774.5714 247.5436 1774.5714 143.2359 1684.2382 195.39"/>
      <polygon class="cls-11" points="1774.5008 143.2359 1684.1681 91.0823 1684.1681 195.39 1774.5008 143.2359"/>
      <polygon class="cls-10" points="1684.1681 195.39 1593.835 143.2359 1593.835 247.5436 1684.1681 195.39"/>
      <polygon class="cls-9" points="1593.835 247.5436 1684.1681 299.6972 1684.1681 195.39 1593.835 247.5436"/>
      <polygon class="cls-9" points="1774.5008 247.5436 1684.1681 195.39 1684.1681 299.6972 1774.5008 247.5436"/>
      <polygon class="cls-10" points="1774.5008 143.2359 1864.8339 195.39 1864.8339 91.0823 1774.5008 143.2359"/>
      <polygon class="cls-11" points="1864.904 195.39 1955.2372 247.5436 1955.2372 143.2359 1864.904 195.39"/>
      <polygon class="cls-1" points="1955.1666 143.2359 1864.8339 91.0823 1864.8339 195.39 1955.1666 143.2359"/>
      <polygon class="cls-1" points="1864.8339 195.39 1774.5008 143.2359 1774.5008 247.5436 1864.8339 195.39"/>
      <polygon class="cls-9" points="1774.5008 247.5436 1864.8339 299.6972 1864.8339 195.39 1774.5008 247.5436"/>
      <polygon class="cls-9" points="1955.1666 247.5436 1864.8339 195.39 1864.8339 299.6972 1955.1666 247.5436"/>
      <polygon class="cls-1" points="2000 117.35 2000 169.12 1955.24 143.28 1955.2 143.26 1955.1699 143.24 2000 117.35"/>
      <polygon class="cls-9" points="2000 169.12 2000 221.66 1955.24 247.5 1955.2 247.52 1955.1699 247.54 1955.1699 143.24 1955.2 143.26 1955.24 143.28 2000 169.12"/>
      <polygon class="cls-11" points="2000 221.66 2000 273.43 1955.1699 247.54 1955.2 247.52 1955.24 247.5 2000 221.66"/>
      <polygon class="cls-10" points="58.25 299.7 58.25 404 58.21 403.98 58.18 403.96 0 370.37 0 333.33 15.33 324.47 57.53 300.12 58.18 299.74 58.21 299.72 58.25 299.7"/>
      <polygon class="cls-10" points="58.18 299.7 57.5 300.1 57.49 300.1 15.3 324.45 0 333.29 0 266.11 28.78 282.72 58.18 299.7"/>
      <polygon class="cls-9" points="58.18 404 0 437.59 0 370.41 58.18 404"/>
      <polygon class="cls-9" points="58.1753 299.6972 148.5085 351.8509 148.5085 247.5436 58.1753 299.6972"/>
      <polygon class="cls-10" points="148.5786 351.8509 238.9117 404.0049 238.9117 299.6972 148.5786 351.8509"/>
      <polygon class="cls-11" points="238.8411 299.6972 148.5085 247.5436 148.5085 351.8509 238.8411 299.6972"/>
      <polygon class="cls-11" points="148.5085 351.8509 58.1753 299.6972 58.1753 404.0049 148.5085 351.8509"/>
      <polygon class="cls-1" points="58.1753 404.0049 148.5085 456.1586 148.5085 351.8509 58.1753 404.0049"/>
      <polygon class="cls-10" points="238.8411 404.0049 148.5085 351.8509 148.5085 456.1586 238.8411 404.0049"/>
      <polygon class="cls-10" points="238.8411 299.6972 329.1743 351.8509 329.1743 247.5436 238.8411 299.6972"/>
      <polygon class="cls-10" points="329.2444 351.8509 419.5775 404.0049 419.5775 299.6972 329.2444 351.8509"/>
      <polygon class="cls-1" points="419.5069 299.6972 329.1743 247.5436 329.1743 351.8509 419.5069 299.6972"/>
      <polygon class="cls-10" points="329.1743 351.8509 238.8411 299.6972 238.8411 404.0049 329.1743 351.8509"/>
      <polygon class="cls-11" points="238.8411 404.0049 329.1743 456.1586 329.1743 351.8509 238.8411 404.0049"/>
      <polygon class="cls-10" points="419.5069 404.0049 329.1743 351.8509 329.1743 456.1586 419.5069 404.0049"/>
      <polygon class="cls-10" points="419.5069 299.6972 509.8401 351.8509 509.8401 247.5436 419.5069 299.6972"/>
      <polygon class="cls-10" points="509.9102 351.8509 600.2433 404.0049 600.2433 299.6972 509.9102 351.8509"/>
      <polygon class="cls-10" points="600.1728 299.6972 509.8401 247.5436 509.8401 351.8509 600.1728 299.6972"/>
      <polygon class="cls-10" points="509.8401 351.8509 419.5069 299.6972 419.5069 404.0049 509.8401 351.8509"/>
      <polygon class="cls-9" points="419.5069 404.0049 509.8401 456.1586 509.8401 351.8509 419.5069 404.0049"/>
      <polygon class="cls-11" points="600.1728 404.0049 509.8401 351.8509 509.8401 456.1586 600.1728 404.0049"/>
      <polygon class="cls-11" points="600.1728 299.6972 690.5059 351.8509 690.5059 247.5436 600.1728 299.6972"/>
      <polygon class="cls-10" points="690.576 351.8509 780.9091 404.0049 780.9091 299.6972 690.576 351.8509"/>
      <polygon class="cls-10" points="780.8391 299.6972 690.5059 247.5436 690.5059 351.8509 780.8391 299.6972"/>
      <polygon class="cls-10" points="690.5059 351.8509 600.1728 299.6972 600.1728 404.0049 690.5059 351.8509"/>
      <polygon class="cls-1" points="600.1728 404.0049 690.5059 456.1586 690.5059 351.8509 600.1728 404.0049"/>
      <polygon class="cls-1" points="780.8391 404.0049 690.5059 351.8509 690.5059 456.1586 780.8391 404.0049"/>
      <polygon class="cls-10" points="780.8386 299.6972 871.1717 351.8509 871.1717 247.5436 780.8386 299.6972"/>
      <polygon class="cls-1" points="871.2418 351.8509 961.575 404.0049 961.575 299.6972 871.2418 351.8509"/>
      <polygon class="cls-9" points="961.5049 299.6972 871.1717 247.5436 871.1717 351.8509 961.5049 299.6972"/>
      <polygon class="cls-1" points="871.1717 351.8509 780.8386 299.6972 780.8386 404.0049 871.1717 351.8509"/>
      <polygon class="cls-1" points="780.8386 404.0049 871.1717 456.1586 871.1717 351.8509 780.8386 404.0049"/>
      <polygon class="cls-10" points="961.5049 404.0049 871.1717 351.8509 871.1717 456.1586 961.5049 404.0049"/>
      <polygon class="cls-1" points="961.5049 299.6972 1051.8375 351.8509 1051.8375 247.5436 961.5049 299.6972"/>
      <polygon class="cls-1" points="1051.9076 351.8509 1142.2408 404.0049 1142.2408 299.6972 1051.9076 351.8509"/>
      <polygon class="cls-10" points="1142.1707 299.6972 1051.8375 247.5436 1051.8375 351.8509 1142.1707 299.6972"/>
      <polygon class="cls-11" points="1051.8375 351.8509 961.5049 299.6972 961.5049 404.0049 1051.8375 351.8509"/>
      <polygon class="cls-11" points="961.5049 404.0049 1051.8375 456.1586 1051.8375 351.8509 961.5049 404.0049"/>
      <polygon class="cls-9" points="1142.1707 404.0049 1051.8375 351.8509 1051.8375 456.1586 1142.1707 404.0049"/>
      <polygon class="cls-10" points="1142.1707 299.6972 1232.5034 351.8509 1232.5034 247.5436 1142.1707 299.6972"/>
      <polygon class="cls-10" points="1232.5739 351.8509 1322.9066 404.0049 1322.9066 299.6972 1232.5739 351.8509"/>
      <polygon class="cls-10" points="1322.8365 299.6972 1232.5034 247.5436 1232.5034 351.8509 1322.8365 299.6972"/>
      <polygon class="cls-1" points="1232.5034 351.8509 1142.1707 299.6972 1142.1707 404.0049 1232.5034 351.8509"/>
      <polygon class="cls-9" points="1142.1707 404.0049 1232.5034 456.1586 1232.5034 351.8509 1142.1707 404.0049"/>
      <polygon class="cls-9" points="1322.8365 404.0049 1232.5034 351.8509 1232.5034 456.1586 1322.8365 404.0049"/>
      <polygon class="cls-1" points="1322.8365 299.6972 1413.1692 351.8509 1413.1692 247.5436 1322.8365 299.6972"/>
      <polygon class="cls-9" points="1413.2397 351.8509 1503.5724 404.0049 1503.5724 299.6972 1413.2397 351.8509"/>
      <polygon class="cls-10" points="1503.5023 299.6972 1413.1692 247.5436 1413.1692 351.8509 1503.5023 299.6972"/>
      <polygon class="cls-11" points="1413.1692 351.8509 1322.8365 299.6972 1322.8365 404.0049 1413.1692 351.8509"/>
      <polygon class="cls-10" points="1322.8365 404.0049 1413.1692 456.1586 1413.1692 351.8509 1322.8365 404.0049"/>
      <polygon class="cls-10" points="1503.5023 404.0049 1413.1692 351.8509 1413.1692 456.1586 1503.5023 404.0049"/>
      <polygon class="cls-10" points="1503.5023 299.6972 1593.835 351.8509 1593.835 247.5436 1503.5023 299.6972"/>
      <polygon class="cls-9" points="1593.9056 351.8509 1684.2382 404.0049 1684.2382 299.6972 1593.9056 351.8509"/>
      <polygon class="cls-10" points="1684.1681 299.6972 1593.835 247.5436 1593.835 351.8509 1684.1681 299.6972"/>
      <polygon class="cls-1" points="1593.835 351.8509 1503.5023 299.6972 1503.5023 404.0049 1593.835 351.8509"/>
      <polygon class="cls-9" points="1503.5023 404.0049 1593.835 456.1586 1593.835 351.8509 1503.5023 404.0049"/>
      <polygon class="cls-9" points="1684.1681 404.0049 1593.835 351.8509 1593.835 456.1586 1684.1681 404.0049"/>
      <polygon class="cls-1" points="1684.1681 299.6972 1774.5008 351.8509 1774.5008 247.5436 1684.1681 299.6972"/>
      <polygon class="cls-1" points="1774.5714 351.8509 1864.904 404.0049 1864.904 299.6972 1774.5714 351.8509"/>
      <polygon class="cls-10" points="1864.8339 299.6972 1774.5008 247.5436 1774.5008 351.8509 1864.8339 299.6972"/>
      <polygon class="cls-9" points="1774.5008 351.8509 1684.1681 299.6972 1684.1681 404.0049 1774.5008 351.8509"/>
      <polygon class="cls-11" points="1684.1681 404.0049 1774.5008 456.1586 1774.5008 351.8509 1684.1681 404.0049"/>
      <polygon class="cls-10" points="1864.8339 404.0049 1774.5008 351.8509 1774.5008 456.1586 1864.8339 404.0049"/>
      <polygon class="cls-1" points="1864.8339 299.6972 1955.1666 351.8509 1955.1666 247.5436 1864.8339 299.6972"/>
      <polygon class="cls-10" points="2000 326.01 2000 377.69 1955.24 351.85 2000 326.01"/>
      <polygon class="cls-10" points="2000 273.43 2000 325.97 1955.1699 351.85 1955.1699 247.54 2000 273.43"/>
      <polygon class="cls-9" points="1955.1666 351.8509 1864.8339 299.6972 1864.8339 404.0049 1955.1666 351.8509"/>
      <polygon class="cls-1" points="1864.8339 404.0049 1955.1666 456.1586 1955.1666 351.8509 1864.8339 404.0049"/>
      <polygon class="cls-9" points="2000 377.73 2000 430.27 1955.1699 456.16 1955.1699 351.85 2000 377.73"/>
      <polygon class="cls-11" points="58.18 404 58.18 508.31 0 474.72 0 437.59 58.18 404"/>
      <polygon class="cls-10" points="58.2459 508.3126 148.5786 560.4663 148.5786 456.1586 58.2459 508.3126"/>
      <polygon class="cls-1" points="148.5085 456.1586 58.1753 404.0049 58.1753 508.3126 148.5085 456.1586"/>
      <polygon class="cls-11" points="58.18 508.31 0 541.9 0 474.72 58.18 508.31"/>
      <polygon class="cls-10" points="58.18 508.31 58.18 612.62 0 579.03 0 541.9 58.18 508.31"/>
      <polygon class="cls-1" points="148.5085 560.4663 58.1753 508.3126 58.1753 612.6199 148.5085 560.4663"/>
      <polygon class="cls-1" points="148.5085 456.1586 238.8411 508.3126 238.8411 404.0049 148.5085 456.1586"/>
      <polygon class="cls-10" points="238.9117 508.3126 329.2444 560.4663 329.2444 456.1586 238.9117 508.3126"/>
      <polygon class="cls-10" points="329.1743 456.1586 238.8411 404.0049 238.8411 508.3126 329.1743 456.1586"/>
      <polygon class="cls-9" points="238.8411 508.3126 148.5085 456.1586 148.5085 560.4663 238.8411 508.3126"/>
      <polygon class="cls-9" points="148.5085 560.4663 238.8411 612.6199 238.8411 508.3126 148.5085 560.4663"/>
      <polygon class="cls-9" points="329.1743 560.4663 238.8411 508.3126 238.8411 612.6199 329.1743 560.4663"/>
      <polygon class="cls-1" points="329.1743 456.1586 419.5069 508.3126 419.5069 404.0049 329.1743 456.1586"/>
      <polygon class="cls-10" points="419.5775 508.3126 509.9102 560.4663 509.9102 456.1586 419.5775 508.3126"/>
      <polygon class="cls-1" points="509.8401 456.1586 419.5069 404.0049 419.5069 508.3126 509.8401 456.1586"/>
      <polygon class="cls-10" points="419.5069 508.3126 329.1743 456.1586 329.1743 560.4663 419.5069 508.3126"/>
      <polygon class="cls-1" points="329.1743 560.4663 419.5069 612.6199 419.5069 508.3126 329.1743 560.4663"/>
      <polygon class="cls-1" points="509.8401 560.4663 419.5069 508.3126 419.5069 612.6199 509.8401 560.4663"/>
      <polygon class="cls-11" points="509.8401 456.1586 600.1728 508.3126 600.1728 404.0049 509.8401 456.1586"/>
      <polygon class="cls-10" points="600.2433 508.3126 690.576 560.4663 690.576 456.1586 600.2433 508.3126"/>
      <polygon class="cls-1" points="690.5059 456.1586 600.1728 404.0049 600.1728 508.3126 690.5059 456.1586"/>
      <polygon class="cls-11" points="600.1728 508.3126 509.8401 456.1586 509.8401 560.4663 600.1728 508.3126"/>
      <polygon class="cls-10" points="509.8401 560.4663 600.1728 612.6199 600.1728 508.3126 509.8401 560.4663"/>
      <polygon class="cls-1" points="690.5059 560.4663 600.1728 508.3126 600.1728 612.6199 690.5059 560.4663"/>
      <polygon class="cls-10" points="690.5059 456.1586 780.8386 508.3126 780.8386 404.0049 690.5059 456.1586"/>
      <polygon class="cls-10" points="780.9091 508.3126 871.2418 560.4663 871.2418 456.1586 780.9091 508.3126"/>
      <polygon class="cls-11" points="871.1717 456.1586 780.8391 404.0049 780.8391 508.3126 871.1717 456.1586"/>
      <polygon class="cls-10" points="780.8391 508.3126 690.5059 456.1586 690.5059 560.4663 780.8391 508.3126"/>
      <polygon class="cls-10" points="690.5059 560.4663 780.8386 612.6199 780.8386 508.3126 690.5059 560.4663"/>
      <polygon class="cls-1" points="871.1717 560.4663 780.8391 508.3126 780.8391 612.6199 871.1717 560.4663"/>
      <polygon class="cls-10" points="871.1717 456.1586 961.5049 508.3126 961.5049 404.0049 871.1717 456.1586"/>
      <polygon class="cls-9" points="961.575 508.3126 1051.9076 560.4663 1051.9076 456.1586 961.575 508.3126"/>
      <polygon class="cls-10" points="1051.8375 456.1586 961.5049 404.0049 961.5049 508.3126 1051.8375 456.1586"/>
      <polygon class="cls-9" points="961.5049 508.3126 871.1717 456.1586 871.1717 560.4663 961.5049 508.3126"/>
      <polygon class="cls-10" points="871.1717 560.4663 961.5049 612.6199 961.5049 508.3126 871.1717 560.4663"/>
      <polygon class="cls-9" points="1051.8375 560.4663 961.5049 508.3126 961.5049 612.6199 1051.8375 560.4663"/>
      <polygon class="cls-10" points="1051.8375 456.1586 1142.1707 508.3126 1142.1707 404.0049 1051.8375 456.1586"/>
      <polygon class="cls-11" points="1142.2408 508.3126 1232.5739 560.4663 1232.5739 456.1586 1142.2408 508.3126"/>
      <polygon class="cls-1" points="1232.5034 456.1586 1142.1707 404.0049 1142.1707 508.3126 1232.5034 456.1586"/>
      <polygon class="cls-1" points="1142.1707 508.3126 1051.8375 456.1586 1051.8375 560.4663 1142.1707 508.3126"/>
      <polygon class="cls-10" points="1051.8375 560.4663 1142.1707 612.6199 1142.1707 508.3126 1051.8375 560.4663"/>
      <polygon class="cls-9" points="1232.5034 560.4663 1142.1707 508.3126 1142.1707 612.6199 1232.5034 560.4663"/>
      <polygon class="cls-10" points="1232.5034 456.1586 1322.8365 508.3126 1322.8365 404.0049 1232.5034 456.1586"/>
      <polygon class="cls-1" points="1322.9066 508.3126 1413.2397 560.4663 1413.2397 456.1586 1322.9066 508.3126"/>
      <polygon class="cls-10" points="1413.1692 456.1586 1322.8365 404.0049 1322.8365 508.3126 1413.1692 456.1586"/>
      <polygon class="cls-9" points="1322.8365 508.3126 1232.5034 456.1586 1232.5034 560.4663 1322.8365 508.3126"/>
      <polygon class="cls-10" points="1232.5034 560.4663 1322.8365 612.6199 1322.8365 508.3126 1232.5034 560.4663"/>
      <polygon class="cls-9" points="1413.1692 560.4663 1322.8365 508.3126 1322.8365 612.6199 1413.1692 560.4663"/>
      <polygon class="cls-10" points="1413.1692 456.1586 1503.5023 508.3126 1503.5023 404.0049 1413.1692 456.1586"/>
      <polygon class="cls-10" points="1503.5724 508.3126 1593.9056 560.4663 1593.9056 456.1586 1503.5724 508.3126"/>
      <polygon class="cls-10" points="1593.835 456.1586 1503.5023 404.0049 1503.5023 508.3126 1593.835 456.1586"/>
      <polygon class="cls-9" points="1503.5023 508.3126 1413.1692 456.1586 1413.1692 560.4663 1503.5023 508.3126"/>
      <polygon class="cls-10" points="1413.1692 560.4663 1503.5023 612.6199 1503.5023 508.3126 1413.1692 560.4663"/>
      <polygon class="cls-10" points="1593.835 560.4663 1503.5023 508.3126 1503.5023 612.6199 1593.835 560.4663"/>
      <polygon class="cls-10" points="1593.835 456.1586 1684.1681 508.3126 1684.1681 404.0049 1593.835 456.1586"/>
      <polygon class="cls-10" points="1684.2382 508.3126 1774.5714 560.4663 1774.5714 456.1586 1684.2382 508.3126"/>
      <polygon class="cls-11" points="1774.5008 456.1586 1684.1681 404.0049 1684.1681 508.3126 1774.5008 456.1586"/>
      <polygon class="cls-9" points="1684.1681 508.3126 1593.835 456.1586 1593.835 560.4663 1684.1681 508.3126"/>
      <polygon class="cls-9" points="1593.835 560.4663 1684.1681 612.6199 1684.1681 508.3126 1593.835 560.4663"/>
      <polygon class="cls-10" points="1774.5008 560.4663 1684.1681 508.3126 1684.1681 612.6199 1774.5008 560.4663"/>
      <polygon class="cls-9" points="1774.5008 456.1586 1864.8339 508.3126 1864.8339 404.0049 1774.5008 456.1586"/>
      <polygon class="cls-1" points="1864.904 508.3126 1955.2372 560.4663 1955.2372 456.1586 1864.904 508.3126"/>
      <polygon class="cls-10" points="1955.1666 456.1586 1864.8339 404.0049 1864.8339 508.3126 1955.1666 456.1586"/>
      <polygon class="cls-11" points="1864.8339 508.3126 1774.5008 456.1586 1774.5008 560.4663 1864.8339 508.3126"/>
      <polygon class="cls-9" points="1774.5008 560.4663 1864.8339 612.6199 1864.8339 508.3126 1774.5008 560.4663"/>
      <polygon class="cls-10" points="1955.1666 560.4663 1864.8339 508.3126 1864.8339 612.6199 1955.1666 560.4663"/>
      <polygon class="cls-10" points="2000 430.27 2000 482.04 1955.24 456.2 1955.2 456.18 1955.1699 456.16 2000 430.27"/>
      <polygon class="cls-11" points="2000 482.04 2000 534.58 1955.24 560.43 1955.2 560.45 1955.1699 560.47 1955.1699 456.16 1955.2 456.18 1955.24 456.2 2000 482.04"/>
      <polygon class="cls-10" points="2000 534.58 2000 586.35 1955.1699 560.47 1955.2 560.45 1955.24 560.43 2000 534.58"/>
      <polygon class="cls-1" points="58.25 612.62 58.25 716.93 58.21 716.91 58.18 716.89 0 683.3 0 646.25 58.18 612.66 58.21 612.64 58.25 612.62"/>
      <polygon class="cls-9" points="58.18 612.62 0 646.21 0 579.03 58.18 612.62"/>
      <polygon class="cls-1" points="58.18 716.93 0 750.52 0 683.34 58.18 716.93"/>
      <polygon class="cls-1" points="58.1753 612.6199 148.5085 664.7735 148.5085 560.4663 58.1753 612.6199"/>
      <polygon class="cls-1" points="148.5786 664.7735 238.9117 716.9276 238.9117 612.6199 148.5786 664.7735"/>
      <polygon class="cls-9" points="238.8411 612.6199 148.5085 560.4663 148.5085 664.7735 238.8411 612.6199"/>
      <polygon class="cls-1" points="148.5085 664.7735 58.1753 612.6199 58.1753 716.9276 148.5085 664.7735"/>
      <polygon class="cls-10" points="58.1753 716.9276 148.5085 769.0812 148.5085 664.7735 58.1753 716.9276"/>
      <polygon class="cls-1" points="238.8411 716.9276 148.5085 664.7735 148.5085 769.0812 238.8411 716.9276"/>
      <polygon class="cls-1" points="238.8411 612.6199 329.1743 664.7735 329.1743 560.4663 238.8411 612.6199"/>
      <polygon class="cls-11" points="329.2444 664.7735 419.5775 716.9276 419.5775 612.6199 329.2444 664.7735"/>
      <polygon class="cls-1" points="419.5069 612.6199 329.1743 560.4663 329.1743 664.7735 419.5069 612.6199"/>
      <polygon class="cls-1" points="329.1743 664.7735 238.8411 612.6199 238.8411 716.9276 329.1743 664.7735"/>
      <polygon class="cls-11" points="238.8411 716.9276 329.1743 769.0812 329.1743 664.7735 238.8411 716.9276"/>
      <polygon class="cls-10" points="419.5069 716.9276 329.1743 664.7735 329.1743 769.0812 419.5069 716.9276"/>
      <polygon class="cls-10" points="419.5069 612.6199 509.8401 664.7735 509.8401 560.4663 419.5069 612.6199"/>
      <polygon class="cls-10" points="509.9102 664.7735 600.2433 716.9276 600.2433 612.6199 509.9102 664.7735"/>
      <polygon class="cls-1" points="600.1728 612.6199 509.8401 560.4663 509.8401 664.7735 600.1728 612.6199"/>
      <polygon class="cls-10" points="509.8401 664.7735 419.5069 612.6199 419.5069 716.9276 509.8401 664.7735"/>
      <polygon class="cls-1" points="419.5069 716.9276 509.8401 769.0812 509.8401 664.7735 419.5069 716.9276"/>
      <polygon class="cls-10" points="600.1728 716.9276 509.8401 664.7735 509.8401 769.0812 600.1728 716.9276"/>
      <polygon class="cls-1" points="600.1728 612.6199 690.5059 664.7735 690.5059 560.4663 600.1728 612.6199"/>
      <polygon class="cls-11" points="690.576 664.7735 780.9091 716.9276 780.9091 612.6199 690.576 664.7735"/>
      <polygon class="cls-10" points="780.8391 612.6199 690.5059 560.4663 690.5059 664.7735 780.8391 612.6199"/>
      <polygon class="cls-10" points="690.5059 664.7735 600.1728 612.6199 600.1728 716.9276 690.5059 664.7735"/>
      <polygon class="cls-10" points="600.1728 716.9276 690.5059 769.0812 690.5059 664.7735 600.1728 716.9276"/>
      <polygon class="cls-9" points="780.8391 716.9276 690.5059 664.7735 690.5059 769.0812 780.8391 716.9276"/>
      <polygon class="cls-9" points="780.8386 612.6199 871.1717 664.7735 871.1717 560.4663 780.8386 612.6199"/>
      <polygon class="cls-1" points="871.2418 664.7735 961.575 716.9276 961.575 612.6199 871.2418 664.7735"/>
      <polygon class="cls-1" points="961.5049 612.6199 871.1717 560.4663 871.1717 664.7735 961.5049 612.6199"/>
      <polygon class="cls-9" points="871.1717 664.7735 780.8386 612.6199 780.8386 716.9276 871.1717 664.7735"/>
      <polygon class="cls-9" points="780.8386 716.9276 871.1717 769.0812 871.1717 664.7735 780.8386 716.9276"/>
      <polygon class="cls-11" points="961.5049 716.9276 871.1717 664.7735 871.1717 769.0812 961.5049 716.9276"/>
      <polygon class="cls-1" points="961.5049 612.6199 1051.8375 664.7735 1051.8375 560.4663 961.5049 612.6199"/>
      <polygon class="cls-10" points="1051.9076 664.7735 1142.2408 716.9276 1142.2408 612.6199 1051.9076 664.7735"/>
      <polygon class="cls-1" points="1142.1707 612.6199 1051.8375 560.4663 1051.8375 664.7735 1142.1707 612.6199"/>
      <polygon class="cls-9" points="1051.8375 664.7735 961.5049 612.6199 961.5049 716.9276 1051.8375 664.7735"/>
      <polygon class="cls-11" points="961.5049 716.9276 1051.8375 769.0812 1051.8375 664.7735 961.5049 716.9276"/>
      <polygon class="cls-1" points="1142.1707 716.9276 1051.8375 664.7735 1051.8375 769.0812 1142.1707 716.9276"/>
      <polygon class="cls-11" points="1142.1707 612.6199 1232.5034 664.7735 1232.5034 560.4663 1142.1707 612.6199"/>
      <polygon class="cls-11" points="1232.5739 664.7735 1322.9066 716.9276 1322.9066 612.6199 1232.5739 664.7735"/>
      <polygon class="cls-1" points="1322.8365 612.6199 1232.5034 560.4663 1232.5034 664.7735 1322.8365 612.6199"/>
      <polygon class="cls-10" points="1232.5034 664.7735 1142.1707 612.6199 1142.1707 716.9276 1232.5034 664.7735"/>
      <polygon class="cls-10" points="1142.1707 716.9276 1232.5034 769.0812 1232.5034 664.7735 1142.1707 716.9276"/>
      <polygon class="cls-10" points="1322.8365 716.9276 1232.5034 664.7735 1232.5034 769.0812 1322.8365 716.9276"/>
      <polygon class="cls-10" points="1322.8365 612.6199 1413.1692 664.7735 1413.1692 560.4663 1322.8365 612.6199"/>
      <polygon class="cls-9" points="1413.2397 664.7735 1503.5724 716.9276 1503.5724 612.6199 1413.2397 664.7735"/>
      <polygon class="cls-11" points="1503.5023 612.6199 1413.1692 560.4663 1413.1692 664.7735 1503.5023 612.6199"/>
      <polygon class="cls-10" points="1413.1692 664.7735 1322.8365 612.6199 1322.8365 716.9276 1413.1692 664.7735"/>
      <polygon class="cls-9" points="1322.8365 716.9276 1413.1692 769.0812 1413.1692 664.7735 1322.8365 716.9276"/>
      <polygon class="cls-11" points="1503.5023 716.9276 1413.1692 664.7735 1413.1692 769.0812 1503.5023 716.9276"/>
      <polygon class="cls-9" points="1503.5023 612.6199 1593.835 664.7735 1593.835 560.4663 1503.5023 612.6199"/>
      <polygon class="cls-1" points="1593.9056 664.7735 1684.2382 716.9276 1684.2382 612.6199 1593.9056 664.7735"/>
      <polygon class="cls-1" points="1684.1681 612.6199 1593.835 560.4663 1593.835 664.7735 1684.1681 612.6199"/>
      <polygon class="cls-9" points="1593.835 664.7735 1503.5023 612.6199 1503.5023 716.9276 1593.835 664.7735"/>
      <polygon class="cls-10" points="1503.5023 716.9276 1593.835 769.0812 1593.835 664.7735 1503.5023 716.9276"/>
      <polygon class="cls-1" points="1684.1681 716.9276 1593.835 664.7735 1593.835 769.0812 1684.1681 716.9276"/>
      <polygon class="cls-1" points="1684.1681 612.6199 1774.5008 664.7735 1774.5008 560.4663 1684.1681 612.6199"/>
      <polygon class="cls-11" points="1774.5714 664.7735 1864.904 716.9276 1864.904 612.6199 1774.5714 664.7735"/>
      <polygon class="cls-11" points="1864.8339 612.6199 1774.5008 560.4663 1774.5008 664.7735 1864.8339 612.6199"/>
      <polygon class="cls-11" points="1774.5008 664.7735 1684.1681 612.6199 1684.1681 716.9276 1774.5008 664.7735"/>
      <polygon class="cls-9" points="1684.1681 716.9276 1774.5008 769.0812 1774.5008 664.7735 1684.1681 716.9276"/>
      <polygon class="cls-10" points="1864.8339 716.9276 1774.5008 664.7735 1774.5008 769.0812 1864.8339 716.9276"/>
      <polygon class="cls-10" points="1864.8339 612.6199 1955.1666 664.7735 1955.1666 560.4663 1864.8339 612.6199"/>
      <polygon class="cls-11" points="2000 638.93 2000 690.62 1955.24 664.77 2000 638.93"/>
      <polygon class="cls-9" points="2000 586.35 2000 638.89 1955.1699 664.77 1955.1699 560.47 2000 586.35"/>
      <polygon class="cls-1" points="1955.1666 664.7735 1864.8339 612.6199 1864.8339 716.9276 1955.1666 664.7735"/>
      <polygon class="cls-1" points="1864.8339 716.9276 1955.1666 769.0812 1955.1666 664.7735 1864.8339 716.9276"/>
      <polygon class="cls-10" points="2000 690.66 2000 743.2 1955.1699 769.08 1955.1699 664.77 2000 690.66"/>
      <polygon class="cls-9" points="58.18 716.93 58.18 821.24 0 787.65 0 750.52 58.18 716.93"/>
      <polygon class="cls-10" points="58.2459 821.2353 148.5786 873.3889 148.5786 769.0812 58.2459 821.2353"/>
      <polygon class="cls-1" points="148.5085 769.0812 58.1753 716.9276 58.1753 821.2353 148.5085 769.0812"/>
      <polygon class="cls-11" points="58.18 821.24 0 854.83 0 787.65 58.18 821.24"/>
      <polygon class="cls-9" points="58.18 821.24 58.18 925.54 58.1 925.49 0 891.95 0 854.83 58.18 821.24"/>
      <polygon class="cls-10" points="148.5085 873.3889 58.1753 821.2353 58.1753 925.5425 148.5085 873.3889"/>
      <polygon class="cls-11" points="148.5085 769.0812 238.8411 821.2353 238.8411 716.9276 148.5085 769.0812"/>
      <polygon class="cls-11" points="238.9117 821.2353 329.2444 873.3889 329.2444 769.0812 238.9117 821.2353"/>
      <polygon class="cls-1" points="329.1743 769.0812 238.8411 716.9276 238.8411 821.2353 329.1743 769.0812"/>
      <polygon class="cls-1" points="238.8411 821.2353 148.5085 769.0812 148.5085 873.3889 238.8411 821.2353"/>
      <polygon class="cls-1" points="148.5085 873.3889 238.8411 925.5425 238.8411 821.2353 148.5085 873.3889"/>
      <polygon class="cls-1" points="329.1743 873.3889 238.8411 821.2353 238.8411 925.5425 329.1743 873.3889"/>
      <polygon class="cls-1" points="329.1743 769.0812 419.5069 821.2353 419.5069 716.9276 329.1743 769.0812"/>
      <polygon class="cls-1" points="419.5775 821.2353 509.9102 873.3889 509.9102 769.0812 419.5775 821.2353"/>
      <polygon class="cls-9" points="509.8401 769.0812 419.5069 716.9276 419.5069 821.2353 509.8401 769.0812"/>
      <polygon class="cls-1" points="419.5069 821.2353 329.1743 769.0812 329.1743 873.3889 419.5069 821.2353"/>
      <polygon class="cls-10" points="329.1743 873.3889 419.5069 925.5425 419.5069 821.2353 329.1743 873.3889"/>
      <polygon class="cls-1" points="509.8401 873.3889 419.5069 821.2353 419.5069 925.5425 509.8401 873.3889"/>
      <polygon class="cls-10" points="509.8401 769.0812 600.1728 821.2353 600.1728 716.9276 509.8401 769.0812"/>
      <polygon class="cls-10" points="600.2433 821.2353 690.576 873.3889 690.576 769.0812 600.2433 821.2353"/>
      <polygon class="cls-1" points="690.5059 769.0812 600.1728 716.9276 600.1728 821.2353 690.5059 769.0812"/>
      <polygon class="cls-11" points="600.1728 821.2353 509.8401 769.0812 509.8401 873.3889 600.1728 821.2353"/>
      <polygon class="cls-10" points="509.8401 873.3889 600.1728 925.5425 600.1728 821.2353 509.8401 873.3889"/>
      <polygon class="cls-1" points="690.5059 873.3889 600.1728 821.2353 600.1728 925.5425 690.5059 873.3889"/>
      <polygon class="cls-1" points="690.5059 769.0812 780.8386 821.2353 780.8386 716.9276 690.5059 769.0812"/>
      <polygon class="cls-1" points="780.9091 821.2353 871.2418 873.3889 871.2418 769.0812 780.9091 821.2353"/>
      <polygon class="cls-1" points="871.1717 769.0812 780.8391 716.9276 780.8391 821.2353 871.1717 769.0812"/>
      <polygon class="cls-1" points="780.8391 821.2353 690.5059 769.0812 690.5059 873.3889 780.8391 821.2353"/>
      <polygon class="cls-10" points="690.5059 873.3889 780.8386 925.5425 780.8386 821.2353 690.5059 873.3889"/>
      <polygon class="cls-1" points="871.1717 873.3889 780.8391 821.2353 780.8391 925.5425 871.1717 873.3889"/>
      <polygon class="cls-10" points="871.1717 769.0812 961.5049 821.2353 961.5049 716.9276 871.1717 769.0812"/>
      <polygon class="cls-10" points="961.575 821.2353 1051.9076 873.3889 1051.9076 769.0812 961.575 821.2353"/>
      <polygon class="cls-9" points="1051.8375 769.0812 961.5049 716.9276 961.5049 821.2353 1051.8375 769.0812"/>
      <polygon class="cls-1" points="961.5049 821.2353 871.1717 769.0812 871.1717 873.3889 961.5049 821.2353"/>
      <polygon class="cls-1" points="871.1717 873.3889 961.5049 925.5425 961.5049 821.2353 871.1717 873.3889"/>
      <polygon class="cls-10" points="1051.8375 873.3889 961.5049 821.2353 961.5049 925.5425 1051.8375 873.3889"/>
      <polygon class="cls-1" points="1051.8375 769.0812 1142.1707 821.2353 1142.1707 716.9276 1051.8375 769.0812"/>
      <polygon class="cls-10" points="1142.2408 821.2353 1232.5739 873.3889 1232.5739 769.0812 1142.2408 821.2353"/>
      <polygon class="cls-1" points="1232.5034 769.0812 1142.1707 716.9276 1142.1707 821.2353 1232.5034 769.0812"/>
      <polygon class="cls-10" points="1142.1707 821.2353 1051.8375 769.0812 1051.8375 873.3889 1142.1707 821.2353"/>
      <polygon class="cls-10" points="1051.8375 873.3889 1142.1707 925.5425 1142.1707 821.2353 1051.8375 873.3889"/>
      <polygon class="cls-1" points="1232.5034 873.3889 1142.1707 821.2353 1142.1707 925.5425 1232.5034 873.3889"/>
      <polygon class="cls-11" points="1232.5034 769.0812 1322.8365 821.2353 1322.8365 716.9276 1232.5034 769.0812"/>
      <polygon class="cls-10" points="1322.9066 821.2353 1413.2397 873.3889 1413.2397 769.0812 1322.9066 821.2353"/>
      <polygon class="cls-9" points="1413.1692 769.0812 1322.8365 716.9276 1322.8365 821.2353 1413.1692 769.0812"/>
      <polygon class="cls-10" points="1322.8365 821.2353 1232.5034 769.0812 1232.5034 873.3889 1322.8365 821.2353"/>
      <polygon class="cls-9" points="1232.5034 873.3889 1322.8365 925.5425 1322.8365 821.2353 1232.5034 873.3889"/>
      <polygon class="cls-1" points="1413.1692 873.3889 1322.8365 821.2353 1322.8365 925.5425 1413.1692 873.3889"/>
      <polygon class="cls-10" points="1413.1692 769.0812 1503.5023 821.2353 1503.5023 716.9276 1413.1692 769.0812"/>
      <polygon class="cls-9" points="1503.5724 821.2353 1593.9056 873.3889 1593.9056 769.0812 1503.5724 821.2353"/>
      <polygon class="cls-9" points="1593.835 769.0812 1503.5023 716.9276 1503.5023 821.2353 1593.835 769.0812"/>
      <polygon class="cls-11" points="1503.5023 821.2353 1413.1692 769.0812 1413.1692 873.3889 1503.5023 821.2353"/>
      <polygon class="cls-1" points="1413.1692 873.3889 1503.5023 925.5425 1503.5023 821.2353 1413.1692 873.3889"/>
      <polygon class="cls-9" points="1593.835 873.3889 1503.5023 821.2353 1503.5023 925.5425 1593.835 873.3889"/>
      <polygon class="cls-1" points="1593.835 769.0812 1684.1681 821.2353 1684.1681 716.9276 1593.835 769.0812"/>
      <polygon class="cls-1" points="1684.2382 821.2353 1774.5714 873.3889 1774.5714 769.0812 1684.2382 821.2353"/>
      <polygon class="cls-1" points="1774.5008 769.0812 1684.1681 716.9276 1684.1681 821.2353 1774.5008 769.0812"/>
      <polygon class="cls-1" points="1684.1681 821.2353 1593.835 769.0812 1593.835 873.3889 1684.1681 821.2353"/>
      <polygon class="cls-10" points="1593.835 873.3889 1684.1681 925.5425 1684.1681 821.2353 1593.835 873.3889"/>
      <polygon class="cls-1" points="1774.5008 873.3889 1684.1681 821.2353 1684.1681 925.5425 1774.5008 873.3889"/>
      <polygon class="cls-9" points="1774.5008 769.0812 1864.8339 821.2353 1864.8339 716.9276 1774.5008 769.0812"/>
      <polygon class="cls-11" points="1864.904 821.2353 1955.2372 873.3889 1955.2372 769.0812 1864.904 821.2353"/>
      <polygon class="cls-1" points="1955.1666 769.0812 1864.8339 716.9276 1864.8339 821.2353 1955.1666 769.0812"/>
      <polygon class="cls-1" points="1864.8339 821.2353 1774.5008 769.0812 1774.5008 873.3889 1864.8339 821.2353"/>
      <polygon class="cls-1" points="1774.5008 873.3889 1864.8339 925.5425 1864.8339 821.2353 1774.5008 873.3889"/>
      <polygon class="cls-11" points="1955.1666 873.3889 1864.8339 821.2353 1864.8339 925.5425 1955.1666 873.3889"/>
      <polygon class="cls-11" points="2000 743.2 2000 794.97 1955.24 769.12 1955.2 769.1 1955.1699 769.08 2000 743.2"/>
      <polygon class="cls-10" points="2000 794.97 2000 847.51 1973.72 862.68 1955.24 873.35 1955.2 873.37 1955.1699 873.39 1955.1699 769.08 1955.2 769.1 1955.24 769.12 2000 794.97"/>
      <polygon class="cls-10" points="1973.72 862.68 2000 847.51 2000 899.27 1955.1699 873.39 1955.2 873.37 1955.24 873.35 1973.72 862.68"/>
      <polygon class="cls-9" points="58.25 925.54 58.25 1000 6.54 1000 0 996.22 0 959.17 58.18 925.58 58.21 925.56 58.25 925.54"/>
      <polygon class="cls-1" points="58.18 925.54 0 959.13 0 891.95 58.1 925.49 58.18 925.54"/>
      <polygon class="cls-10" points="6.47 1000 0 1000 0 996.26 6.47 1000"/>
      <polygon class="cls-11" points="58.1753 925.5425 148.5085 977.6961 148.5085 873.3889 58.1753 925.5425"/>
      <polygon class="cls-10" points="238.91 925.54 238.91 1000 187.21 1000 148.58 977.7 238.84 925.58 238.88 925.56 238.91 925.54"/>
      <polygon class="cls-9" points="238.8411 925.5425 148.5085 873.3889 148.5085 977.6961 238.8411 925.5425"/>
      <polygon class="cls-10" points="148.51 977.7 109.88 1000 58.18 1000 58.18 925.54 58.21 925.56 58.25 925.58 146.4 976.48 148.51 977.7"/>
      <polygon class="cls-10" points="148.51 977.7 148.51 1000 109.88 1000 148.51 977.7"/>
      <polygon class="cls-10" points="187.14 1000 148.51 1000 148.51 977.7 187.14 1000"/>
      <polygon class="cls-10" points="238.8411 925.5425 329.1743 977.6961 329.1743 873.3889 238.8411 925.5425"/>
      <polygon class="cls-9" points="419.58 925.54 419.58 1000 367.87 1000 329.24 977.7 419.51 925.58 419.54 925.56 419.58 925.54"/>
      <polygon class="cls-11" points="419.5069 925.5425 329.1743 873.3889 329.1743 977.6961 419.5069 925.5425"/>
      <polygon class="cls-10" points="329.17 977.7 290.54 1000 238.84 1000 238.84 925.54 238.88 925.56 238.91 925.58 329.17 977.7"/>
      <polygon class="cls-1" points="329.17 977.7 329.17 1000 290.54 1000 329.17 977.7"/>
      <polygon class="cls-10" points="367.8 1000 329.17 1000 329.17 977.7 367.8 1000"/>
      <polygon class="cls-11" points="419.5069 925.5425 509.8401 977.6961 509.8401 873.3889 419.5069 925.5425"/>
      <polygon class="cls-11" points="600.24 925.54 600.24 1000 548.54 1000 509.91 977.7 600.17 925.58 600.21 925.56 600.24 925.54"/>
      <polygon class="cls-11" points="600.1728 925.5425 509.8401 873.3889 509.8401 977.6961 600.1728 925.5425"/>
      <polygon class="cls-1" points="509.84 977.7 471.21 1000 419.51 1000 419.51 925.54 419.54 925.56 419.58 925.58 509.84 977.7"/>
      <polygon class="cls-11" points="509.84 977.7 509.84 1000 471.21 1000 509.84 977.7"/>
      <polygon class="cls-11" points="548.47 1000 509.84 1000 509.84 977.7 548.47 1000"/>
      <polygon class="cls-9" points="600.1728 925.5425 690.5059 977.6961 690.5059 873.3889 600.1728 925.5425"/>
      <polygon class="cls-9" points="780.91 925.54 780.91 1000 729.21 1000 690.58 977.7 780.84 925.58 780.88 925.56 780.91 925.54"/>
      <polygon class="cls-11" points="780.8391 925.5425 690.5059 873.3889 690.5059 977.6961 780.8391 925.5425"/>
      <polygon class="cls-11" points="690.51 977.7 651.88 1000 600.17 1000 600.17 925.54 600.21 925.56 600.24 925.58 690.51 977.7"/>
      <polygon class="cls-1" points="690.51 977.7 690.51 1000 651.88 1000 690.51 977.7"/>
      <polygon class="cls-10" points="729.14 1000 690.51 1000 690.51 977.7 729.14 1000"/>
      <polygon class="cls-1" points="780.8386 925.5425 871.1717 977.6961 871.1717 873.3889 780.8386 925.5425"/>
      <polygon class="cls-1" points="961.57 925.54 961.57 1000 909.87 1000 871.24 977.7 961.5 925.58 961.54 925.56 961.57 925.54"/>
      <polygon class="cls-9" points="961.5049 925.5425 871.1717 873.3889 871.1717 977.6961 961.5049 925.5425"/>
      <polygon class="cls-9" points="871.17 977.7 832.54 1000 780.84 1000 780.84 925.54 780.88 925.56 780.91 925.58 871.17 977.7"/>
      <polygon class="cls-11" points="871.17 977.7 871.17 1000 832.54 1000 871.17 977.7"/>
      <polygon class="cls-10" points="909.8 1000 871.17 1000 871.17 977.7 909.8 1000"/>
      <polygon class="cls-10" points="961.5049 925.5425 1051.8375 977.6961 1051.8375 873.3889 961.5049 925.5425"/>
      <polygon class="cls-10" points="1142.24 925.54 1142.24 1000 1090.54 1000 1051.9099 977.7 1054.74 976.07 1142.1699 925.58 1142.21 925.56 1142.24 925.54"/>
      <polygon class="cls-9" points="1142.1707 925.5425 1051.8375 873.3889 1051.8375 977.6961 1142.1707 925.5425"/>
      <polygon class="cls-9" points="1051.8401 977.7 1013.21 1000 961.5 1000 961.5 925.54 961.54 925.56 961.57 925.58 1051.8401 977.7"/>
      <polygon class="cls-10" points="1051.8401 977.7 1051.8401 1000 1013.21 1000 1051.8401 977.7"/>
      <polygon class="cls-10" points="1090.47 1000 1051.8401 1000 1051.8401 977.7 1090.47 1000"/>
      <polygon class="cls-10" points="1142.1707 925.5425 1232.5034 977.6961 1232.5034 873.3889 1142.1707 925.5425"/>
      <polygon class="cls-1" points="1322.9099 925.54 1322.9099 1000 1271.2 1000 1232.5701 977.7 1233 977.45 1322.8401 925.58 1322.87 925.56 1322.9099 925.54"/>
      <polygon class="cls-1" points="1322.8365 925.5425 1232.5034 873.3889 1232.5034 977.6961 1322.8365 925.5425"/>
      <polygon class="cls-9" points="1232.5 977.7 1193.87 1000 1142.1699 1000 1142.1699 925.54 1142.21 925.56 1142.24 925.58 1232.5 977.7"/>
      <polygon class="cls-1" points="1232.5 977.7 1232.5 1000 1193.87 1000 1232.5 977.7"/>
      <polygon class="cls-10" points="1271.13 1000 1232.5 1000 1232.5 977.7 1271.13 1000"/>
      <polygon class="cls-1" points="1322.8365 925.5425 1413.1692 977.6961 1413.1692 873.3889 1322.8365 925.5425"/>
      <polygon class="cls-1" points="1503.5701 925.54 1503.5701 1000 1451.87 1000 1413.24 977.7 1503.5 925.58 1503.54 925.56 1503.5701 925.54"/>
      <polygon class="cls-10" points="1503.5023 925.5425 1413.1692 873.3889 1413.1692 977.6961 1503.5023 925.5425"/>
      <polygon class="cls-11" points="1413.1699 977.7 1374.54 1000 1322.8401 1000 1322.8401 925.54 1322.87 925.56 1322.9099 925.58 1413.1699 977.7"/>
      <polygon class="cls-1" points="1413.1699 977.7 1413.1699 1000 1374.54 1000 1413.1699 977.7"/>
      <polygon class="cls-1" points="1451.8 1000 1413.1699 1000 1413.1699 977.7 1451.8 1000"/>
      <polygon class="cls-1" points="1503.5023 925.5425 1593.835 977.6961 1593.835 873.3889 1503.5023 925.5425"/>
      <polygon class="cls-10" points="1684.24 925.54 1684.24 1000 1632.54 1000 1593.9099 977.7 1684.1699 925.58 1684.21 925.56 1684.24 925.54"/>
      <polygon class="cls-10" points="1684.1681 925.5425 1593.835 873.3889 1593.835 977.6961 1684.1681 925.5425"/>
      <polygon class="cls-10" points="1593.8301 977.7 1555.2 1000 1503.5 1000 1503.5 925.54 1503.54 925.56 1503.5701 925.58 1593.8301 977.7"/>
      <polygon class="cls-11" points="1593.8301 977.7 1593.8301 1000 1555.2 1000 1593.8301 977.7"/>
      <polygon class="cls-10" points="1632.46 1000 1593.8301 1000 1593.8301 977.7 1632.46 1000"/>
      <polygon class="cls-9" points="1684.1681 925.5425 1774.5008 977.6961 1774.5008 873.3889 1684.1681 925.5425"/>
      <polygon class="cls-1" points="1864.9 925.54 1864.9 1000 1813.2 1000 1774.5701 977.7 1864.8301 925.58 1864.87 925.56 1864.9 925.54"/>
      <polygon class="cls-11" points="1864.8339 925.5425 1774.5008 873.3889 1774.5008 977.6961 1864.8339 925.5425"/>
      <polygon class="cls-10" points="1774.5 977.7 1735.87 1000 1684.1699 1000 1684.1699 925.54 1684.21 925.56 1684.24 925.58 1774.5 977.7"/>
      <polygon class="cls-1" points="1774.5 977.7 1774.5 1000 1735.87 1000 1774.5 977.7"/>
      <polygon class="cls-10" points="1813.13 1000 1774.5 1000 1774.5 977.7 1813.13 1000"/>
      <polygon class="cls-1" points="1864.8339 925.5425 1955.1666 977.6961 1955.1666 873.3889 1864.8339 925.5425"/>
      <polygon class="cls-10" points="2000 951.85 2000 1000 1993.87 1000 1955.24 977.7 2000 951.85"/>
      <polygon class="cls-1" points="2000 899.27 2000 951.81 1955.1699 977.7 1955.1699 873.39 2000 899.27"/>
      <polygon class="cls-9" points="1955.1699 977.7 1916.54 1000 1864.8301 1000 1864.8301 925.54 1864.87 925.56 1864.9 925.58 1955.1699 977.7"/>
      <polygon class="cls-1" points="1955.1699 977.7 1955.1699 1000 1916.54 1000 1955.1699 977.7"/>
      <polygon class="cls-1" points="1993.8 1000 1955.1699 1000 1955.1699 977.7 1993.8 1000"/>
      <path class="cls-5" d="M1233,977.45l39.12,22.55h-173.75c-14.4501-7.88-29-15.86-43.63-23.93-.01-.01-.03-.01-.04-.02-.95-.53-1.9099-1.05-2.8599-1.58-29.3601-16.2-59.0901-32.75-89.1101-49.64-.41-.23-.82-.46-1.23-.6899-29.67-16.69-59.64-33.71-89.85-51.03-.14-.08-.27-.16-.41-.24-.02-.01-.05-.02-.07-.04-8.16-4.67-16.34-9.3799-24.54-14.1-21.92-12.63-43.65-25.24-65.17-37.81-.01,0-.02-.01-.03-.02-.2-.11-.4-.23-.59-.34-30.03-17.54-59.64-35-88.8-52.36-.5099-.3-1.02-.6-1.53-.91-29.49-17.55-58.5-34.99-87-52.29-1.09-.65-2.18-1.31-3.27-1.98-.02-.0099-.05-.02-.07-.04-.19-.11-.38-.23-.56-.34-28.4-17.25-56.28-34.34-83.58-51.26-.04-.02-.08-.04-.1201-.07-.02-.01-.03-.01-.04-.02-2.02-1.25-4.02-2.49-6.03-3.74-27.48-17.04-54.38-33.9-80.64-50.52-3.24-2.05-6.47-4.1-9.69-6.14-25.97-16.4901-51.3-32.7401-75.95-48.73-4.8-3.11-9.57-6.21-14.32-9.3-.02-.02-.05-.04-.07-.05-24.04-15.66-47.41-31.06-70.05-46.17-.01,0-.03-.01-.04-.02-6.81-4.54-13.56-9.06-20.24-13.55-21.6801-14.56-42.65-28.83-62.8701-42.77-9.3199-6.42-18.47-12.77-27.46-19.05-18.72-13.07-36.73-25.83-53.99-38.23-12.49-8.99-24.59-17.79-36.27-26.4-.03-.02-.05-.03-.07-.05-14.97-11.02-29.26-21.73-42.85-32.1-.01-.01-.02-.02-.03-.02-5.2-3.98-10.3-7.9-15.3-11.77v-45.72l27.99,16.13,29.5,17.01h.01l.03,.02,.65,.37,.07,.04,89.66,51.67,.6,.34,89.82,51.76,.51,.29,89.91,51.81,.04,.02,.38,.22,.07,.04,89.93,51.82h.01l.33,.2,90.09,51.91,.2401,.14,90.17,51.96,.04,.02,.12,.07,.05,.03,.02,.01,83.3,48,6.89,3.97h.01l.07,.05,68.04,39.2,.54,.31,3.8,2.19,17.95,10.35,.02,.01,90.31,52.04,.1,.06,90.23,51.9901,.2,.11,.03,.03,90.1101,51.92,.0698,.04,.2101,.12,90.0499,51.89,.3701,.21,89.96,51.84,.46,.26,.04,.02Z"/>
      <path class="cls-3" d="M2000,795.11v80.57c-8.6799-4.27-17.4399-8.61-26.28-13-6.12-3.05-12.28-6.12-18.48-9.23-.02-.01-.04-.02-.0701-.03-25.3298-12.69-51.25-25.84-77.72-39.43-.01-.01-.02-.01-.03-.02-4.1799-2.15-8.3799-4.31-12.5898-6.48-26.9401-13.89-54.4301-28.23-82.4001-42.99-2.6399-1.39-5.2799-2.79-7.9299-4.19-28.1699-14.89-56.8301-30.21-85.9199-45.93-1.4501-.78-2.8901-1.56-4.3401-2.34-.02-.02-.05-.03-.0701-.04-29.0599-15.72-58.5399-31.83-88.3899-48.31-.01-.01-.03-.02-.04-.02-.64-.35-1.27-.71-1.9099-1.06-29.6501-16.38-59.6702-33.11-89.9801-50.19-.12-.06-.23-.13-.35-.2-11.0701-6.23-22.1699-12.51-33.3201-18.84-.1199-.07-.23-.13-.3499-.2-.05-.03-.0901-.05-.1401-.08-.02-.01-.0399-.02-.0599-.03-18.7101-10.6-37.5499-21.36-56.4601-32.22-.1099-.06-.22-.12-.3298-.19-6.0701-3.48-12.1401-6.97-18.2301-10.48-24.17-13.93-48.1-27.82-71.7699-41.67-.0601-.03-.1201-.06-.1702-.1-7.3899-4.31-14.75-8.63-22.0798-12.94-.2101-.13-.4302-.25-.6401-.38-22.45-13.19-44.6599-26.33-66.6099-39.41-.28-.17-.5601-.34-.8401-.51-29.71-17.7-58.9299-35.29-87.62-52.73-.88-.53-1.76-1.07-2.64-1.6-.03-.02-.05-.03-.0701-.04-12.0399-7.33-23.98-14.62-35.8199-21.88-16.39-10.05-32.59-20.04-48.6-29.97l-.39-.2401h-.01c-.0099-.0099-.0199-.0099-.0299-.03-1.8301-1.13-3.6602-2.26-5.48-3.39-27.6602-17.18-54.7201-34.16-81.1201-50.91-3.08-1.95-6.15-3.9-9.22-5.84-26.12-16.61-51.58-32.98-76.34-49.08-4.67-3.03-9.31-6.05-13.92-9.06-.02-.0099-.05-.03-.07-.05-24.16-15.76-47.63-31.26-70.35-46.45-.01-.0099-.02-.0099-.03-.03-6.72-4.48-13.37-8.94-19.95-13.37-21.76-14.66-42.8-29.01-63.06-43.01-9.25-6.4-18.35-12.72-27.27-18.98-18.75-13.13-36.78-25.94-54.03-38.39-12.49-9.01-24.57-17.84-36.24-26.47-.02-.02-.05-.04-.07-.06-14.92-11.04-29.16-21.76-42.68-32.14-.01,0-.02-.01-.03-.02-.57-.43-1.14-.87-1.71-1.32-4.44-3.4-8.8-6.78-13.08-10.11h77.48l68.96,39.74,1.4,.8,89.02,51.3,1.31,.75,89.11,51.35,.04,.02,1.18,.69,.07,.04,89.13,51.35,1.13,.66,89.29,51.45,1.05,.6,89.3699,51.5,.04,.02,.45,.26,.47,.27,.0701,.04,38.4199,22.14,50.9701,29.37,.87,.5,89.55,51.61,.79,.45,89.6399,51.65,.03,.02,.6599,.38,.0701,.04,89.65,51.66,.61,.35,89.8201,51.7599,.51,.29,89.9099,51.81,.03,.02,.3999,.23,.0701,.04,89.91,51.81,.35,.2,90.0801,51.9,.25,.15,90.1699,51.96,.04,.02,.1299,.08,.0701,.04,44.76,25.79Z"/>
      <path class="cls-6" d="M1318.6,198.51c-13.63,17.1-34.75,38.16-62.58,62.61-7.37,6.47-15.22,13.19-23.52,20.13-15.46,12.94-32.52,26.67-51.0601,41.12-.26,.2-.52,.4-.78,.61-12.1799,9.48-24.99,19.27-38.4199,29.35-.02,.02-.05,.04-.0701,.0601-11.5,8.6299-23.4399,17.48-35.8199,26.53-1.11,.81-2.22,1.62-3.33,2.44-.01,0-.02,.01-.03,.02-16.3301,11.9-33.39,24.15-51.1499,36.71-9.7101,6.87-19.6301,13.83-29.7501,20.89-19.46,13.56-39.67,27.45-60.59,41.64-7.28,4.94-14.65,9.92-22.1,14.93-22,14.81-44.7401,29.92-68.16,45.3-.02,.02-.05,.04-.07,.05-5.25,3.45-10.53,6.91-15.84,10.38l-.03,.03c-24.14,15.77-48.97,31.83-74.46,48.12-3.6,2.31-7.22,4.62-10.85,6.93-25.86,16.49-52.37,33.21-79.48,50.13-2.29,1.44-4.59,2.87-6.89,4.3-.03,.02-.05,.04-.08,.05-27.19,16.95-54.98,34.1-83.3,51.41-.02,.01-.05,.03-.07,.04-.19,.12-.37,.23-.56,.35-1.1,.67-2.21,1.34-3.31,2.02-.01,0-.02,.01-.03,.02-28.29,17.27-57.12,34.7-86.43,52.25-.61,.37-1.22,.73-1.83,1.09-29.04,17.39-58.56,34.9-88.5,52.48-.21,.13-.42,.25-.63,.38-29.18,17.14-58.77,34.36-88.72,51.63-.31,.18-.61,.35-.92,.53-.02,.01-.05,.03-.07,.04-.08,.05-.15,.09-.23,.14-.01,0-.02,.01-.03,.02h-.0099c-30.27,17.45-60.3,34.6-90.06,51.44-.25,.15-.5,.29-.75,.43-30.17,17.07-60.05,33.81-89.58,50.2-.71,.39-1.41,.78-2.11,1.17-14.28,7.93-28.48,15.77-42.6,23.52H0v-41l58.1-33.51,.08-.04,90.29-52.08,.04-.02,.07-.04,64.28-37.07,3.05-1.76,3.95-2.28,18.98-10.95h.0099l41.9301-24.19,3.99-2.3,44.4-25.61,.06-.03h.01v-.01l90.27-52.06,.11-.06,90.22-52.04,.16-.09,.03-.02,6-3.46,84.14-48.52,.05-.03,.02-.0099,.14-.08,90.13-51.99,.25-.14,90.08-51.95,.3-.18,.03-.02h.01l89.99-51.9,.07-.04,.28-.16,89.98-51.9,.4-.23,89.9401-51.87,.4399-.25h.01l.03-.02,5.4299-3.14,83.95-48.42,.47-.27,.0701-.04,.4199-.24,89.8401-51.81,.54-.32,85.5599-49.34Z"/>
      <path class="cls-4" d="M573.94,0c-6.08,3.39-12.14,6.76-18.19,10.11-15.4,8.54-30.71,16.99-45.91,25.34-1.03,.56-2.06,1.1299-3.09,1.69h-.01c-29.46,16.16-58.53,31.95-87.16,47.33-.03,.02-.05,.03-.07,.04-1.96,1.06-3.91,2.1-5.86,3.15-.01,.01-.02,.01-.03,.02-28.62,15.35-56.79,30.3-84.45,44.82-3.26,1.71-6.51,3.42-9.75,5.11-27.38,14.34-54.26,28.24-80.58,41.7-4.95,2.53-9.88,5.05-14.79,7.54-25.73,13.09-50.9,25.74-75.47,37.92-.02,.01-.04,.02-.07,.03-7.11,3.53-14.18,7.02-21.19,10.46h-.01c-.01,.0099-.02,.02-.03,.02-23.64,11.63-46.69,22.8-69.1,33.5-9.93,4.74-19.73,9.39-29.4,13.94-.26,.13-.53,.25-.79,.37-9.46,4.45-18.79,8.81-27.99,13.07v-67.45l57.98-33.44,.2-.12,90.17-52,.16-.09,90.23-52.04,.03-.02,.07-.04,.0699-.04,90.2-52.02,.06-.04L396.56,0h177.38Z"/>
      <rect class="cls-7" width="2000" height="1000"/>
      <rect class="cls-2" width="2000" height="1000"/>
    </g>
  </g>
</svg>